# xmcd
#
# Track frame offsets: 
#        150
#        18369
#        43875
#        67525
#        82670
#        109085
#        133197
#        153573
#        172158
#        194452
#
# Disc length: 3297 seconds
#
# Revision: 4
# Processed by: cddbd v1.5.2PL0 Copyright (c) Steve Scherf et al.
# Submitted via: ExactAudioCopyFreeDBPlugin 1.0
#
DISCID=7e0cdf0a
DTITLE=趙學而 HOK-E - Trinity
DYEAR=2011
DGENRE=Pop
TTITLE0=初戀
TTITLE1=如果
TTITLE2=蛻變
TTITLE3=我為你狂
TTITLE4=Oh No! Oh Yes!
TTITLE5=男人是否都一樣
TTITLE6=最後一夜
TTITLE7=聽不到的說話
TTITLE8=癡心的一句
TTITLE9=深愛著你
EXTD=YEAR: 2011
EXTT0=
EXTT1=
EXTT2=
EXTT3=
EXTT4=
EXTT5=
EXTT6=
EXTT7=
EXTT8=
EXTT9=
PLAYORDER=
